
<svg xmlns="http://www.w3.org/2000/svg" version="1.1" xmlns:xlink="http://www.w3.org/1999/xlink" preserveAspectRatio="none" x="0px" y="0px" width="726px" height="128px" viewBox="0 0 726 128">
<defs>
<linearGradient id="Gradient_1" gradientUnits="userSpaceOnUse" x1="-175.3" y1="-34.6" x2="-105.80000000000001" y2="34.9" spreadMethod="pad">
<stop  offset="0%" stop-color="#A78DC1"/>

<stop  offset="100%" stop-color="#1A73E8"/>
</linearGradient>

<g id="Layer0_0_FILL">
<path fill="url(#Gradient_1)" stroke="none" d="
M -140.3 -64.1
Q -145.85 -64.1 -149.7 -60.25
L -200.75 -9.2
Q -204.3 -5.35 -204.3 0.15 -204.3 5.55 -200.75 9.4
L -149.7 60.45
Q -145.95 64.15 -140.3 64.15 -134.8 64.15 -131.1 60.45
L -80.05 9.4
Q -76.3 5.55 -76.3 0.15 -76.3 -5.35 -80.05 -9.2
L -131.1 -60.25
Q -134.95 -64.1 -140.3 -64.1
M -129.4 -24.85
Q -128.65 -25.65 -127.6 -25.65 -126.6 -25.65 -125.85 -24.85
L -125.7 -24.85 -108.5 -7.65 -125.7 9.65
Q -126.75 10.4 -127.5 10.3 -129.15 10.3 -129.8 9.15 -130.05 8.6 -130.05 7.7 -130.05 6.8 -129.4 5.9
L -118.4 -5.1 -145.45 -5.1
Q -146.1 -5.1 -146.75 -5 -149.15 -4.6 -150.95 -2.8 -153.15 -0.6 -153.15 2.6
L -153.15 25.65
Q -153.15 28.25 -155.7 28.25 -158.3 28.25 -158.3 25.65
L -158.3 2.6
Q -158.3 -2.65 -154.55 -6.5 -150.85 -10.25 -145.45 -10.25
L -118.4 -10.25 -129.4 -21.15
Q -130.2 -21.9 -130.2 -22.95 -130.2 -24.1 -129.4 -24.85 Z"/>
</g>

<g id="Symbol_2_0_Layer0_0_FILL">
<path fill="#1A73E8" stroke="none" d="
M -22.5 -21.35
Q -24.3 -22.85 -26.7 -23.65 -29.1 -24.45 -31.75 -24.5
L -44.7 -24.5 -44.7 15.3 -39.6 15.3 -39.6 -0.65 -31.75 -0.65
Q -29.1 -0.7 -26.7 -1.5 -24.3 -2.3 -22.5 -3.8 -20.7 -5.3 -19.65 -7.5 -18.6 -9.7 -18.6 -12.55 -18.6 -15.45 -19.65 -17.65 -20.7 -19.85 -22.5 -21.35
M -28.5 -19.8
Q -27.05 -19.25 -25.95 -18.2 -24.9 -17.2 -24.25 -15.75 -23.65 -14.3 -23.65 -12.5 -23.65 -10.7 -24.25 -9.3 -24.9 -7.9 -25.95 -6.9 -27.05 -5.9 -28.55 -5.35 -30 -4.85 -31.75 -4.8
L -39.6 -4.8 -39.6 -20.35 -31.75 -20.35
Q -30 -20.35 -28.5 -19.8
M -104.9 -13.8
Q -107.3 -12.75 -109.2 -10.8 -111.1 -8.85 -112.25 -6 -113.4 -3.2 -113.4 0.4
L -113.4 1.55
Q -113.4 4.65 -112.35 7.25 -111.35 9.9 -109.45 11.8 -107.6 13.7 -105 14.8 -102.4 15.85 -99.25 15.85 -97.1 15.85 -95.3 15.4 -93.45 14.9 -92 14.1 -90.55 13.3 -89.45 12.3 -88.35 11.25 -87.6 10.15
L -90.7 7.75
Q -92.1 9.55 -94.2 10.6 -96.3 11.7 -99 11.7 -101.05 11.7 -102.75 10.95 -104.45 10.2 -105.65 8.85 -106.85 7.55 -107.55 5.75 -108.25 4 -108.35 1.95
L -87.2 1.95 -87.2 -0.3
Q -87.2 -3.4 -88 -6.05 -88.75 -8.7 -90.35 -10.65 -91.95 -12.6 -94.3 -13.7 -96.75 -14.85 -99.95 -14.85 -102.45 -14.85 -104.9 -13.8
M -105.3 -8.45
Q -104.2 -9.55 -102.85 -10.1 -101.45 -10.7 -99.95 -10.7 -98 -10.7 -96.55 -9.95 -95.15 -9.25 -94.25 -8.1 -93.3 -6.95 -92.8 -5.5 -92.35 -4.05 -92.25 -2.6
L -92.25 -2.2 -108.2 -2.2
Q -107.9 -4.25 -107.1 -5.8 -106.4 -7.4 -105.3 -8.45
M -130.05 -26.7
L -145.15 -26.7 -145.15 -22.3 -135.1 -22.3 -135.1 10.95 -145.15 10.95 -145.15 15.3 -120.4 15.3 -120.4 10.95 -130.05 10.95 -130.05 -26.7
M -174.95 -14.3
L -179.55 -14.3 -179.55 26.7 -174.5 26.7 -174.5 12.45
Q -173.05 14.1 -170.95 14.95 -168.9 15.85 -166.2 15.85 -163.4 15.85 -161.2 14.7 -159.05 13.55 -157.6 11.55 -156.1 9.5 -155.35 6.75 -154.6 4 -154.6 0.85
L -154.6 0.25
Q -154.6 -3.05 -155.35 -5.8 -156.1 -8.6 -157.6 -10.6 -159.05 -12.6 -161.25 -13.7 -163.45 -14.85 -166.3 -14.85 -169.05 -14.85 -171.1 -13.85 -173.25 -12.9 -174.7 -11.05
L -174.95 -14.3
M -167.8 -10.55
Q -165.65 -10.55 -164.1 -9.65 -162.6 -8.8 -161.6 -7.3 -160.6 -5.8 -160.1 -3.85 -159.65 -1.9 -159.65 0.25
L -159.65 0.85
Q -159.65 3 -160.1 4.95 -160.6 6.95 -161.6 8.45 -162.55 9.95 -164.1 10.85 -165.6 11.7 -167.75 11.7 -170.25 11.7 -171.9 10.6 -173.55 9.5 -174.5 7.75
L -174.5 -6.5
Q -173.55 -8.25 -171.85 -9.4 -170.2 -10.55 -167.8 -10.55
M -210.8 -14.3
L -215.35 -14.3 -215.35 15.3 -210.55 15.3 -210.55 -8.25
Q -210.15 -9.3 -209.25 -9.9 -208.4 -10.55 -206.8 -10.55 -205.1 -10.55 -204.3 -9.6 -203.5 -8.65 -203.5 -6.9
L -203.5 15.3 -198.7 15.3 -198.7 -7.5
Q -198.6 -8.1 -198.35 -8.65 -198.1 -9.2 -197.65 -9.6 -197.25 -10.05 -196.55 -10.3 -195.9 -10.55 -195 -10.55 -191.6 -10.55 -191.6 -6.85
L -191.6 15.3 -186.8 15.3 -186.8 -6.8
Q -186.8 -10.85 -188.55 -12.85 -190.3 -14.85 -193.55 -14.85 -195.6 -14.8 -197 -13.95 -198.45 -13.1 -199.35 -11.65 -200.7 -14.85 -204.75 -14.85 -206.85 -14.8 -208.3 -13.95 -209.8 -13.05 -210.7 -11.5
L -210.8 -14.3
M -236.55 -22.05
Q -236.55 -20.8 -235.8 -20 -235.05 -19.2 -233.5 -19.2 -232 -19.2 -231.25 -20 -230.45 -20.8 -230.45 -22.05 -230.45 -23.3 -231.25 -24.15 -232 -25.05 -233.5 -25.05 -235.05 -25.05 -235.8 -24.15 -236.55 -23.3 -236.55 -22.05
M -245.95 -14.3
L -245.95 -9.9 -235.9 -9.9 -235.9 10.95 -245.95 10.95 -245.95 15.3 -221.2 15.3 -221.2 10.95 -230.85 10.95 -230.85 -14.3 -245.95 -14.3
M -267.75 -20.75
Q -265.95 -20.75 -264.5 -20.15 -263.1 -19.6 -262.05 -18.6 -261 -17.6 -260.4 -16.15 -259.75 -14.8 -259.55 -13.05
L -254.35 -13.05
Q -254.4 -15.8 -255.5 -18 -256.65 -20.2 -258.5 -21.8 -260.35 -23.35 -262.75 -24.2 -265.15 -25.05 -267.75 -25.05 -270.1 -25.05 -272.45 -24.3 -274.75 -23.6 -276.6 -22.2 -278.45 -20.8 -279.55 -18.8 -280.7 -16.75 -280.7 -14.2 -280.7 -11.65 -279.55 -9.7 -278.45 -7.85 -276.6 -6.45 -274.85 -5.05 -272.65 -4.1 -270.5 -3.15 -268.4 -2.45 -266.95 -2 -265.35 -1.4 -263.8 -0.85 -262.5 0.05 -261.15 0.9 -260.35 2.15 -259.5 3.4 -259.5 5.25 -259.5 6.9 -260.2 8.1 -260.95 9.25 -262.05 10.05 -263.15 10.8 -264.6 11.2 -266.05 11.55 -267.5 11.55 -269.4 11.55 -270.95 11.05 -272.5 10.55 -273.7 9.55 -274.95 8.55 -275.7 7.1 -276.45 5.7 -276.7 3.8
L -281.85 3.8
Q -281.8 6.65 -280.55 8.9 -279.3 11.1 -277.25 12.7 -275.25 14.2 -272.7 15.05 -270.15 15.85 -267.5 15.85 -265.15 15.85 -262.75 15.2 -260.4 14.5 -258.5 13.2 -256.6 11.85 -255.4 9.85 -254.25 7.85 -254.25 5.2 -254.25 3.4 -254.7 1.95 -255.25 0.5 -256.15 -0.7 -257.05 -1.95 -258.25 -2.9 -259.45 -3.85 -260.85 -4.65 -262.25 -5.4 -263.75 -5.95 -265.25 -6.55 -266.7 -7.05 -268.05 -7.45 -269.55 -8 -271.1 -8.55 -272.4 -9.35 -273.7 -10.2 -274.55 -11.35 -275.4 -12.55 -275.4 -14.3 -275.4 -15.85 -274.75 -17.05 -274.15 -18.3 -273.05 -19.1 -271.95 -19.9 -270.6 -20.35 -269.2 -20.75 -267.75 -20.75
M 281.85 -14.1
Q 281.45 -14.3 280.9 -14.4 280.3 -14.55 279.6 -14.65 278.9 -14.75 278.1 -14.8 277.35 -14.85 276.65 -14.85 273.4 -14.85 270.9 -13.4 268.35 -12 266.55 -9.6
L 266.3 -14.3 261.5 -14.3 261.5 15.3 266.6 15.3 266.6 -3.7
Q 267.6 -6.55 269.85 -8.2 272 -9.8 275.6 -9.8 277.05 -9.8 278.35 -9.65 279.7 -9.5 281.15 -9.15
L 281.85 -14.1
M 241.7 -13.7
Q 239.25 -14.85 236.05 -14.85 233.55 -14.85 231.1 -13.8 228.7 -12.75 226.8 -10.8 224.9 -8.85 223.75 -6 222.6 -3.2 222.6 0.4
L 222.6 1.55
Q 222.6 4.65 223.65 7.25 224.65 9.9 226.55 11.8 228.4 13.7 231 14.8 233.6 15.85 236.75 15.85 238.9 15.85 240.7 15.4 242.55 14.9 244 14.1 245.45 13.3 246.55 12.3 247.65 11.25 248.4 10.15
L 245.3 7.75
Q 243.9 9.55 241.8 10.6 239.7 11.7 237 11.7 234.95 11.7 233.25 10.95 231.55 10.2 230.35 8.85 229.15 7.55 228.45 5.75 227.75 4 227.65 1.95
L 248.8 1.95 248.8 -0.3
Q 248.8 -3.4 248 -6.05 247.25 -8.7 245.65 -10.65 244.05 -12.6 241.7 -13.7
M 228.9 -5.8
Q 229.6 -7.4 230.7 -8.45 231.8 -9.55 233.15 -10.1 234.55 -10.7 236.05 -10.7 238 -10.7 239.45 -9.95 240.85 -9.25 241.75 -8.1 242.7 -6.95 243.2 -5.5 243.65 -4.05 243.75 -2.6
L 243.75 -2.2 227.8 -2.2
Q 228.1 -4.25 228.9 -5.8
M 202.05 -21.45
L 196.95 -21.45 196.95 -14.3 189.2 -14.3 189.2 -10.4 196.95 -10.4 196.95 5.7
Q 196.95 8.45 197.7 10.4 198.4 12.3 199.65 13.5 200.9 14.75 202.65 15.3 204.35 15.85 206.3 15.85 207.5 15.85 208.7 15.75 209.85 15.65 210.9 15.45 212 15.2 212.9 14.95 213.8 14.65 214.4 14.25
L 213.7 10.7
Q 213.25 10.8 212.55 10.95 211.8 11.1 211 11.25 210.15 11.35 209.25 11.45 208.4 11.55 207.55 11.55 206.45 11.55 205.45 11.3 204.45 11 203.7 10.35 202.9 9.65 202.45 8.55 202.05 7.45 202.05 5.7
L 202.05 -10.4 213.3 -10.4 213.3 -14.3 202.05 -14.3 202.05 -21.45
M 161.7 -14.3
L 156.6 -14.3 156.6 3.3
Q 156.6 6.6 157.35 9 158.05 11.35 159.4 12.85 160.75 14.4 162.65 15.15 164.5 15.85 166.85 15.85 169.75 15.85 171.95 14.65 174.2 13.4 175.65 11.25
L 175.95 15.3 180.55 15.3 180.55 -14.3 175.45 -14.3 175.45 6.95
Q 174.55 9.05 172.65 10.3 170.75 11.6 167.65 11.6 166.2 11.6 165.1 11.2 164 10.8 163.2 9.9 162.45 8.95 162.05 7.35 161.7 5.75 161.7 3.35
L 161.7 -14.3
M 140.5 -13.65
Q 138 -14.85 134.85 -14.85 131.75 -14.85 129.25 -13.65 126.75 -12.5 125.05 -10.5 123.3 -8.45 122.35 -5.7 121.45 -2.95 121.45 0.25
L 121.45 0.85
Q 121.45 4.05 122.35 6.75 123.3 9.5 125.05 11.55 126.75 13.55 129.3 14.7 131.75 15.85 134.9 15.85 138.05 15.85 140.5 14.7 143 13.55 144.75 11.55 146.5 9.5 147.4 6.75 148.35 4.05 148.35 0.85
L 148.35 0.25
Q 148.35 -2.95 147.4 -5.7 146.5 -8.45 144.75 -10.5 143 -12.5 140.5 -13.65
M 127 -3.9
Q 127.55 -5.9 128.6 -7.4 129.65 -8.9 131.2 -9.75 132.75 -10.7 134.85 -10.7 136.95 -10.7 138.55 -9.75 140.1 -8.9 141.2 -7.4 142.2 -5.9 142.75 -3.9 143.3 -1.95 143.3 0.25
L 143.3 0.85
Q 143.3 3 142.75 5 142.25 7 141.2 8.5 140.15 10 138.6 10.85 137 11.75 134.9 11.75 132.8 11.75 131.25 10.85 129.65 10 128.6 8.5 127.55 7 127 5 126.5 3 126.5 0.85
L 126.5 0.25
Q 126.5 -1.95 127 -3.9
M 101.15 -24.5
L 89.45 -24.5 89.45 15.3 94.5 15.3 94.5 -0.95 102.45 -0.95 110.25 15.3 115.6 15.3 115.6 14.95 107.15 -2.05
Q 108.8 -2.75 110.2 -3.75 111.55 -4.75 112.55 -6.1 113.5 -7.4 114.1 -9 114.65 -10.6 114.65 -12.55 114.65 -15.55 113.6 -17.8 112.55 -20.05 110.7 -21.5 108.85 -23 106.4 -23.7 103.9 -24.45 101.15 -24.5
M 94.5 -20.35
L 101.15 -20.35
Q 102.95 -20.35 104.5 -19.85 106.05 -19.35 107.15 -18.35 108.3 -17.4 108.9 -15.95 109.55 -14.55 109.55 -12.6 109.55 -10.8 108.9 -9.4 108.25 -8.05 107.1 -7.1 105.95 -6.15 104.45 -5.6 102.95 -5.15 101.25 -5.1
L 94.5 -5.1 94.5 -20.35
M 27.6 -0.65
L 35.45 -0.65
Q 38.1 -0.7 40.5 -1.5 42.9 -2.3 44.7 -3.8 46.5 -5.3 47.55 -7.5 48.6 -9.7 48.6 -12.55 48.6 -15.45 47.55 -17.65 46.5 -19.85 44.7 -21.35 42.9 -22.85 40.5 -23.65 38.1 -24.45 35.45 -24.5
L 22.5 -24.5 22.5 15.3 27.6 15.3 27.6 -0.65
M 27.6 -4.8
L 27.6 -20.35 35.45 -20.35
Q 37.2 -20.35 38.7 -19.8 40.15 -19.25 41.25 -18.2 42.3 -17.2 42.95 -15.75 43.55 -14.3 43.55 -12.5 43.55 -10.7 42.95 -9.3 42.3 -7.9 41.25 -6.9 40.15 -5.9 38.65 -5.35 37.2 -4.85 35.45 -4.8
L 27.6 -4.8
M 8.65 -24.5
L 8.65 -7.4 -7.7 -7.4 -7.7 -24.5 -12.45 -24.5 -12.45 15.3 -7.7 15.3 -7.7 -3.1 8.65 -3.1 8.65 15.3 13.4 15.3 13.4 -24.5 8.65 -24.5 Z"/>
</g>
</defs>

<g transform="matrix( 1, 0, 0, 1, 204.3,64.1) ">
<g transform="matrix( 1, 0, 0, 1, 0,0) ">
<use xlink:href="#Layer0_0_FILL"/>
</g>

<g transform="matrix( 1, 0, 0, 1, 240,0) ">
<g transform="matrix( 1, 0, 0, 1, 0,0) ">
<use xlink:href="#Symbol_2_0_Layer0_0_FILL"/>
</g>
</g>
</g>
</svg>
